<svg width="45" height="45" viewBox="0 0 45 45" fill="none" xmlns="http://www.w3.org/2000/svg">
<path d="M43.1001 21.2002V39.2002C43.1001 41.4002 41.3001 43.2002 39.1001 43.2002H6.1001C3.9001 43.2002 2.1001 41.4002 2.1001 39.2002V21.2002H43.1001Z" stroke="#FB4033" stroke-width="2" stroke-miterlimit="10" stroke-linejoin="round"/>
<path d="M40.1001 29.2002H5.1001" stroke="#FB4033" stroke-width="2" stroke-miterlimit="10" stroke-linejoin="round"/>
<path d="M31.1001 21.2002L36.1001 29.2002" stroke="#FB4033" stroke-width="2" stroke-miterlimit="10" stroke-linejoin="round"/>
<path d="M20.1001 21.2002L25.1001 29.2002" stroke="#FB4033" stroke-width="2" stroke-miterlimit="10" stroke-linejoin="round"/>
<path d="M9.1001 21.2002L14.1001 29.2002" stroke="#FB4033" stroke-width="2" stroke-miterlimit="10" stroke-linejoin="round"/>
<path d="M1.10006 14.4002L2.10006 18.3002L41.8001 7.90018L40.8001 4.00018C40.2001 1.90018 38.1001 0.600178 35.9001 1.10018L4.00006 9.50018C1.90006 10.0002 0.600056 12.2002 1.10006 14.4002Z" stroke="#FB4033" stroke-width="2" stroke-miterlimit="10" stroke-linejoin="round"/>
<path d="M11.7 7.5L8.90002 16.5" stroke="#FB4033" stroke-width="2" stroke-miterlimit="10" stroke-linejoin="round"/>
<path d="M22.4001 4.7002L19.6001 13.7002" stroke="#FB4033" stroke-width="2" stroke-miterlimit="10" stroke-linejoin="round"/>
<path d="M33.0001 1.90039L30.2001 10.9004" stroke="#FB4033" stroke-width="2" stroke-miterlimit="10" stroke-linejoin="round"/>
</svg>
