<svg width="16" height="14" viewBox="0 0 16 14" fill="none" xmlns="http://www.w3.org/2000/svg">
<path d="M1 7V12C1 12.5523 1.44772 13 2 13H14C14.5523 13 15 12.5523 15 12V7" stroke="white"/>
<path d="M7.64645 10.3536C7.84171 10.5488 8.15829 10.5488 8.35355 10.3536L11.5355 7.17157C11.7308 6.97631 11.7308 6.65973 11.5355 6.46447C11.3403 6.2692 11.0237 6.2692 10.8284 6.46447L8 9.29289L5.17157 6.46447C4.97631 6.2692 4.65973 6.2692 4.46447 6.46447C4.2692 6.65973 4.2692 6.97631 4.46447 7.17157L7.64645 10.3536ZM8.5 1C8.5 0.723858 8.27614 0.5 8 0.5C7.72386 0.5 7.5 0.723858 7.5 1L8.5 1ZM8.5 10L8.5 1L7.5 1L7.5 10L8.5 10Z" fill="white"/>
</svg>
